<?xml version="1.0" standalone="no"?>
<!DOCTYPE svg PUBLIC "-//W3C//DTD SVG 20010904//EN"
 "http://www.w3.org/TR/2001/REC-SVG-20010904/DTD/svg10.dtd">
<svg version="1.0" xmlns="http://www.w3.org/2000/svg"
 width="584.000000pt" height="584.000000pt" viewBox="0 0 584.000000 584.000000"
 preserveAspectRatio="xMidYMid meet">
<metadata>
Created by potrace 1.14, written by Peter Selinger 2001-2017
</metadata>
<g transform="translate(0.000000,584.000000) scale(0.100000,-0.100000)"
fill="#000000" stroke="none">
<path d="M2732 5583 c28 -7 37 -54 37 -201 0 -126 2 -147 20 -176 26 -41 58
-58 113 -59 61 -2 96 9 122 35 39 41 46 73 46 214 0 135 8 174 35 174 8 0 15
5 15 10 0 6 -28 10 -65 10 -37 0 -65 -4 -65 -10 0 -5 9 -10 20 -10 28 0 35
-40 33 -188 -4 -160 -1 -149 -35 -178 -36 -29 -86 -32 -119 -5 -23 19 -24 24
-24 163 -1 183 1 195 34 213 24 13 17 14 -79 13 -58 0 -98 -2 -88 -5z"/>
<path d="M3182 5578 c2 -5 8 -10 13 -11 28 -4 38 -72 22 -147 -5 -21 -12 -71
-32 -207 -5 -32 -14 -43 -35 -43 -40 0 -27 -18 18 -25 26 -3 58 -9 72 -12 25
-6 25 -6 -4 18 l-28 25 11 90 c7 49 15 107 18 129 3 22 6 46 6 53 0 18 24 15
31 -5 3 -10 14 -31 24 -48 10 -16 52 -94 92 -172 41 -79 77 -140 81 -135 3 4
16 81 29 172 12 91 24 172 26 180 1 8 3 21 3 28 1 7 16 19 34 27 33 14 29 20
-23 29 -14 2 -29 5 -35 6 -5 1 -18 2 -27 1 -15 -1 -14 -4 6 -24 22 -22 23 -27
14 -88 -5 -35 -10 -73 -10 -84 -1 -11 -7 -27 -13 -36 -8 -14 -23 7 -80 118
-39 74 -74 137 -79 140 -18 12 -137 30 -134 21z"/>
<path d="M2260 5518 c0 -4 -3 -7 -7 -6 -8 2 -114 -19 -148 -29 -17 -5 -15 -8
11 -15 27 -7 33 -14 39 -50 4 -24 10 -52 12 -63 25 -128 43 -251 38 -265 -6
-19 -77 -46 -93 -36 -6 3 -18 32 -27 64 -9 31 -30 102 -48 157 -17 55 -31 108
-30 118 0 9 1 24 2 32 1 8 8 15 16 15 8 0 15 4 15 9 0 11 -171 -46 -185 -61
-7 -8 -5 -9 7 -5 27 10 45 -14 68 -93 13 -41 33 -109 46 -150 24 -73 31 -139
17 -141 -5 0 -18 -2 -31 -5 -34 -6 -57 10 -152 101 -151 147 -193 185 -202
185 -4 0 -6 -98 -4 -217 3 -175 1 -223 -10 -245 -18 -35 -12 -35 53 -1 50 26
64 46 23 36 -15 -4 -22 2 -30 22 -21 54 -14 69 48 100 31 16 62 30 67 30 15 1
65 -53 65 -69 0 -8 -8 -20 -17 -25 -11 -6 -13 -11 -5 -11 7 0 48 17 90 39 42
21 122 53 177 71 55 18 105 36 110 40 6 4 52 15 103 25 50 10 92 21 92 26 0 5
6 6 13 4 18 -6 86 45 105 80 10 17 19 32 22 35 8 8 11 32 11 86 0 96 -61 191
-134 209 -38 10 -127 12 -127 3z m86 -45 c30 -28 52 -67 60 -109 5 -21 7 -42
6 -46 -1 -5 2 -8 6 -8 14 0 4 -108 -13 -144 -25 -53 -105 -62 -105 -12 0 13
-9 65 -20 117 -11 52 -23 122 -26 157 l-7 62 40 0 c24 0 48 -7 59 -17z m-657
-395 c22 -21 41 -42 41 -46 0 -7 -82 -52 -95 -52 -3 0 -5 32 -5 71 0 39 4 69
9 67 5 -1 27 -20 50 -40z"/>
<path d="M3659 5469 c18 -17 22 -28 16 -53 -3 -17 -9 -42 -11 -56 -6 -28 -50
-188 -65 -237 -9 -27 -16 -33 -40 -33 -44 0 -35 -14 19 -29 26 -7 58 -17 72
-22 14 -5 39 -12 55 -14 l30 -5 -23 18 c-23 18 -26 46 -8 92 3 8 7 26 10 40 7
41 58 224 67 242 6 11 17 15 35 12 39 -7 19 14 -24 25 -20 6 -39 10 -42 10 -3
0 -22 7 -42 15 -21 9 -45 16 -55 16 -14 0 -13 -3 6 -21z"/>
<path d="M3895 5397 c12 -18 15 -65 15 -240 1 -162 4 -217 13 -217 7 0 75 63
152 140 79 80 151 143 165 147 43 10 42 14 -12 42 -56 28 -79 30 -53 4 25 -24
9 -52 -81 -143 l-84 -85 0 45 c-3 264 -4 253 20 247 11 -3 22 -2 25 2 4 7
-152 81 -170 81 -3 0 1 -10 10 -23z"/>
<path d="M4334 5195 c26 -20 17 -55 -40 -151 -26 -43 -58 -99 -72 -124 -45
-80 -46 -81 -69 -77 -13 2 -23 1 -23 -2 0 -11 279 -196 285 -189 32 44 64 98
58 98 -5 0 -19 -7 -32 -16 -30 -22 -99 -14 -141 16 -39 28 -37 53 10 129 45
72 58 69 75 -18 l7 -33 18 28 c11 15 17 31 14 36 -3 4 -1 8 5 8 10 0 51 70 51
85 0 4 -14 -5 -31 -19 -32 -27 -54 -32 -78 -17 -12 8 -6 22 28 80 23 39 44 71
47 71 2 0 22 -12 44 -26 43 -29 65 -76 54 -118 -8 -34 9 -33 26 2 8 15 21 35
29 45 8 9 12 19 10 21 -2 1 -40 27 -84 56 -44 30 -81 57 -83 62 -2 4 -9 8 -15
8 -7 0 -30 14 -51 30 -22 17 -44 30 -50 30 -6 0 -3 -7 8 -15z"/>
<path d="M1328 5109 c-2 -12 -10 -24 -18 -25 -8 -2 -23 -5 -33 -7 -9 -2 -23
-9 -29 -15 -7 -7 -17 -12 -24 -12 -19 0 -54 -68 -54 -105 0 -48 18 -82 57
-106 31 -19 44 -21 131 -15 110 7 130 -1 136 -52 3 -21 -2 -36 -17 -50 -52
-46 -86 -49 -155 -10 -18 10 -35 18 -38 18 -5 0 36 -74 62 -114 13 -18 14 -18
23 8 7 18 20 28 41 32 16 4 30 9 30 13 0 3 14 12 30 20 34 15 70 75 70 118 0
39 -29 89 -64 112 -24 16 -41 18 -100 14 -115 -8 -136 -7 -150 12 -19 27 -8
70 24 88 38 23 76 21 117 -4 19 -12 36 -19 38 -17 2 2 -13 30 -35 61 -32 48
-39 54 -42 36z"/>
<path d="M2786 5062 c-3 -2 -37 -6 -78 -8 -40 -2 -86 -7 -103 -10 -60 -11 -71
-12 -120 -19 -27 -4 -53 -9 -57 -12 -5 -2 -16 -6 -26 -8 -9 -1 -37 -8 -62 -15
-25 -7 -46 -12 -48 -11 -1 1 -18 -6 -38 -14 -20 -8 -46 -17 -58 -19 -11 -2
-34 -10 -51 -17 -16 -7 -33 -12 -37 -11 -5 1 -8 -2 -8 -8 0 -5 -9 -10 -20 -10
-11 0 -20 -5 -20 -10 0 -6 -3 -9 -8 -8 -11 4 -162 -65 -162 -74 0 -4 -4 -8 -9
-8 -26 0 -227 -139 -343 -237 -45 -38 -218 -215 -243 -248 -11 -15 -27 -34
-36 -43 -47 -51 -172 -233 -183 -270 -4 -12 -11 -22 -16 -22 -9 0 -25 -39 -22
-51 0 -4 -8 -15 -18 -24 -11 -10 -20 -23 -20 -30 0 -7 -10 -32 -23 -56 -50
-95 -122 -318 -143 -444 -6 -40 -11 -65 -18 -95 -24 -106 -25 -436 -2 -612 8
-60 28 -164 41 -218 3 -11 7 -29 9 -40 3 -11 8 -25 11 -31 4 -5 9 -25 12 -42
3 -18 10 -38 15 -45 6 -6 7 -12 4 -12 -4 0 -2 -9 4 -21 11 -20 21 -53 22 -76
1 -7 5 -13 10 -13 4 0 8 -8 8 -18 0 -10 5 -23 11 -29 6 -6 11 -17 12 -24 4
-23 117 -241 143 -276 13 -17 24 -35 24 -39 0 -4 9 -15 21 -25 11 -9 20 -21
20 -26 -1 -31 222 -276 345 -381 22 -18 53 -44 69 -58 38 -32 248 -172 300
-201 103 -56 173 -87 184 -83 2 1 7 -3 10 -9 4 -6 16 -12 26 -14 11 -2 31 -9
45 -14 14 -6 28 -11 33 -12 4 0 20 -7 35 -15 15 -8 41 -16 57 -19 17 -3 43
-10 59 -16 16 -7 35 -10 42 -7 8 3 16 1 18 -3 5 -7 27 -13 111 -27 11 -2 36
-7 55 -10 19 -3 53 -8 75 -10 22 -1 56 -6 75 -10 46 -10 358 -9 390 0 14 5 35
8 48 9 12 1 22 3 22 6 0 4 14 6 32 5 18 0 48 3 68 8 19 4 53 10 75 13 75 10
298 77 321 96 8 6 14 8 14 4 0 -4 7 -2 15 5 8 7 15 9 15 6 0 -4 12 -1 28 7 15
7 58 29 97 48 141 69 329 193 438 288 104 92 277 274 277 292 0 6 4 8 8 5 5
-3 17 9 27 27 10 18 24 38 31 44 7 7 22 29 35 50 13 21 26 40 29 43 4 3 15 21
26 40 10 19 22 37 25 40 3 3 11 20 18 37 8 18 17 33 22 33 5 0 9 5 9 11 0 6
21 54 46 106 25 52 46 103 47 114 1 10 5 19 9 19 4 0 8 8 8 18 0 10 3 22 7 26
4 3 8 13 9 21 2 14 21 79 31 105 3 8 7 21 9 29 1 7 8 34 14 60 6 25 13 57 15
71 3 14 9 48 15 75 5 28 12 70 14 95 2 25 5 45 6 45 11 0 16 316 7 390 -4 28
-9 68 -12 90 -3 22 -7 51 -10 65 -3 14 -7 39 -10 55 -3 17 -7 41 -10 55 -3 14
-8 36 -11 50 -9 46 -45 165 -54 182 -6 10 -10 24 -10 31 0 8 -6 27 -14 43 -8
16 -21 47 -31 69 -42 99 -152 305 -183 340 -5 6 -17 24 -28 40 -19 30 -47 65
-72 91 -7 8 -11 14 -8 14 20 0 -279 297 -358 356 -34 25 -69 52 -78 59 -10 8
-18 13 -18 10 0 -2 -11 6 -24 18 -34 31 -203 130 -259 152 -26 10 -47 22 -47
26 0 5 -3 8 -7 7 -5 0 -17 2 -28 7 -11 4 -45 18 -75 30 -96 40 -267 88 -370
104 -36 6 -75 13 -88 15 -66 14 -426 28 -436 18z m44 -2009 c-1 -81 -3 -211
-4 -288 0 -77 -4 -145 -8 -151 -5 -7 -122 -10 -365 -10 l-358 1 0 28 c1 15 -2
27 -5 27 -4 0 -5 127 0 140 0 3 2 31 3 62 2 31 5 59 7 61 3 3 48 7 100 11 93
5 107 7 190 21 22 4 41 6 42 5 4 -2 147 49 188 68 52 23 127 85 167 137 19 26
37 44 40 41 3 -2 4 -71 3 -153z m-11 -571 c4 -6 7 -77 6 -156 -1 -137 -2 -144
-26 -168 -13 -14 -51 -56 -84 -93 -33 -38 -70 -79 -83 -92 l-23 -23 -57 45
c-205 164 -264 206 -279 200 -7 -2 -13 1 -13 7 0 6 -8 4 -19 -6 -19 -18 -51
-12 -51 9 0 7 -11 38 -25 69 -14 31 -25 57 -24 59 1 3 -6 26 -19 64 -14 45 7
56 111 57 26 1 47 4 47 7 0 3 26 7 58 8 57 3 107 8 107 11 0 1 38 4 85 6 46 3
86 7 88 9 10 9 194 -2 201 -13z m-508 -323 c13 -11 34 -29 47 -40 12 -10 22
-17 22 -14 0 5 14 -7 84 -67 17 -15 34 -28 37 -28 4 0 20 -12 36 -27 17 -16
42 -34 56 -42 24 -13 28 -12 53 18 14 18 42 47 60 67 19 19 34 36 34 39 0 2
12 17 28 33 15 15 37 41 50 56 20 27 23 28 44 13 13 -8 48 -38 78 -67 30 -28
91 -84 134 -123 44 -40 87 -79 95 -87 39 -38 50 -43 64 -28 7 7 35 31 61 53
53 43 56 46 140 119 112 96 97 91 153 49 26 -20 50 -39 53 -42 3 -4 41 -36 85
-71 44 -36 91 -75 105 -88 47 -44 55 -44 96 -6 22 19 64 57 94 84 30 27 88 80
129 118 l73 70 172 -175 c94 -96 172 -181 174 -189 3 -11 -48 -95 -69 -114 -3
-3 -12 -15 -21 -28 l-15 -23 -101 98 c-55 54 -111 108 -124 120 l-23 22 -40
-36 c-22 -19 -75 -67 -118 -106 -43 -39 -88 -80 -100 -90 -12 -10 -36 -31 -54
-47 l-31 -29 -39 35 c-21 19 -76 70 -123 113 -47 44 -105 97 -129 119 l-44 40
-37 -36 c-101 -100 -274 -258 -291 -266 -16 -8 -42 14 -164 138 l-144 147 -95
-98 c-52 -54 -113 -119 -137 -145 -37 -42 -79 -63 -79 -40 0 4 -12 15 -27 24
-16 9 -41 28 -58 42 -16 14 -36 26 -43 26 -7 0 -10 5 -7 10 3 6 0 10 -7 10 -8
0 -28 14 -46 30 -18 17 -36 30 -40 30 -4 0 -22 14 -40 30 -18 17 -37 30 -41
30 -4 0 -16 9 -26 20 -10 11 -24 20 -32 20 -7 0 -13 5 -13 10 0 16 -16 11 -41
-13 -13 -12 -60 -54 -104 -92 -44 -39 -90 -80 -102 -92 -12 -13 -24 -23 -27
-23 -3 0 -20 -13 -38 -30 -18 -16 -37 -30 -43 -30 -11 0 -40 24 -190 165 -59
55 -112 103 -119 107 -6 3 -28 -9 -48 -28 -21 -19 -36 -34 -34 -34 2 0 -26
-30 -62 -66 -43 -43 -68 -62 -71 -53 -2 8 -7 16 -10 19 -4 3 -30 36 -59 73
l-53 68 43 42 c125 123 287 267 299 267 8 0 22 -8 30 -17 9 -10 42 -41 75 -70
32 -28 97 -88 144 -132 47 -45 87 -81 90 -81 3 0 87 81 185 180 99 99 187 180
196 180 9 0 27 -9 40 -21z m42 -651 c29 -24 70 -56 91 -73 21 -16 45 -36 52
-42 7 -7 15 -13 17 -13 3 0 16 -9 29 -20 91 -78 97 -79 133 -23 10 15 27 34
37 41 10 7 18 20 18 28 0 8 7 14 15 14 8 0 15 4 15 8 0 5 9 20 21 33 12 13 29
33 38 45 36 45 50 45 100 -3 25 -25 84 -80 130 -122 47 -42 106 -97 132 -123
l47 -48 50 45 c27 25 52 45 55 45 3 0 21 15 39 33 51 47 117 105 153 132 l31
24 125 -102 c69 -56 139 -113 157 -127 17 -14 32 -31 32 -37 0 -7 9 -13 19
-13 11 0 23 -4 26 -10 3 -5 1 -10 -5 -10 -7 0 -10 -7 -6 -15 3 -9 0 -15 -8
-15 -8 0 -16 -3 -18 -8 -1 -4 -35 -23 -75 -43 -51 -25 -76 -33 -88 -26 -9 5
-46 37 -83 73 -37 35 -72 64 -77 64 -10 0 -85 -68 -264 -237 -30 -29 -64 -53
-76 -53 -13 0 -70 50 -160 141 l-140 141 -100 -104 c-55 -58 -114 -120 -131
-139 -16 -20 -37 -38 -46 -42 -17 -6 -79 34 -193 123 -33 25 -99 75 -147 109
-84 61 -87 62 -106 44 -125 -120 -124 -120 -210 -75 -40 20 -72 42 -72 47 0
15 361 375 377 375 7 0 37 -19 66 -42z"/>
<path d="M4700 4943 c0 -5 5 -14 11 -20 13 -13 -6 -54 -45 -96 -14 -15 -26
-32 -26 -37 0 -4 -4 -10 -9 -12 -4 -1 -37 -37 -72 -79 -63 -74 -73 -79 -114
-63 -11 4 13 -27 54 -69 72 -74 109 -101 77 -56 -8 12 -12 29 -8 38 10 26 94
121 103 115 8 -4 5 -63 -8 -164 -10 -80 -7 -91 36 -131 22 -22 41 -46 41 -54
0 -8 7 -15 15 -15 9 0 25 -23 39 -54 37 -84 86 -123 146 -117 70 8 115 71 106
149 -20 175 -20 188 4 205 25 18 47 12 73 -18 14 -16 17 -33 13 -84 -2 -35 -9
-67 -16 -71 -7 -4 -8 -10 -3 -13 5 -4 32 15 59 40 27 26 41 44 32 41 -14 -6
-48 18 -40 29 1 1 2 4 1 6 0 1 -2 10 -4 20 -4 23 -51 84 -73 96 -26 13 -86 7
-115 -12 -42 -27 -53 -81 -38 -190 17 -125 5 -155 -59 -148 -31 4 -60 50 -60
95 0 47 17 107 34 118 6 4 7 10 3 14 -3 4 -25 -10 -47 -30 -23 -21 -47 -35
-53 -33 -13 4 -14 62 -3 152 4 28 7 56 8 63 1 8 15 11 47 9 106 -8 150 111 74
200 -34 39 -146 155 -166 172 -9 7 -17 9 -17 4z m146 -217 c-5 -47 -32 -76
-77 -85 -28 -6 -38 -2 -63 21 l-29 28 59 71 58 71 29 -33 c24 -28 28 -41 23
-73z"/>
<path d="M915 4773 c-10 -14 -27 -36 -39 -47 -22 -22 -142 -158 -165 -188 -12
-16 -9 -23 22 -57 19 -22 38 -37 40 -35 3 3 -2 22 -10 43 -14 35 -13 40 7 74
12 20 25 37 30 37 4 0 62 -56 128 -124 120 -123 130 -139 107 -176 -15 -25 15
-7 37 23 14 17 42 50 61 72 20 22 36 45 36 50 0 6 -3 4 -6 -2 -11 -30 -55 -13
-104 39 -27 29 -81 85 -121 125 l-71 73 23 25 c32 34 52 38 94 21 20 -8 36
-12 36 -9 0 7 -78 83 -85 83 -1 0 -11 -12 -20 -27z"/>
<path d="M611 4363 c-17 -13 -54 -63 -82 -111 -29 -48 -55 -89 -58 -92 -8 -7
-31 -48 -31 -55 0 -3 10 1 23 10 22 14 28 11 136 -65 180 -126 174 -120 168
-157 -3 -18 -4 -33 -2 -33 5 0 90 141 98 163 3 9 2 17 -3 17 -6 0 -10 -4 -10
-10 0 -20 -33 -9 -91 31 -86 61 -82 67 44 70 126 3 129 4 165 64 38 63 39 69
10 54 -12 -6 -63 -13 -115 -15 -98 -4 -97 -4 -93 43 2 33 -28 83 -58 95 -43
18 -69 16 -101 -9z m60 -88 c50 -33 57 -85 20 -133 -15 -20 -20 -22 -32 -10
-8 7 -38 29 -66 48 -29 19 -53 39 -53 43 0 16 34 59 54 67 32 13 39 12 77 -15z"/>
<path d="M5258 4263 c4 -10 7 -24 6 -30 -1 -7 -2 -17 -3 -21 0 -5 -12 -14 -24
-19 -13 -6 -69 -41 -125 -77 -122 -80 -149 -91 -170 -74 -18 15 -18 17 33 -89
41 -85 59 -105 49 -55 -7 35 -1 41 160 141 103 63 133 78 148 70 10 -5 18 -14
18 -20 0 -6 5 -7 10 -4 7 4 4 16 -7 33 -10 15 -34 57 -53 94 -19 38 -39 68
-43 68 -4 0 -4 -8 1 -17z"/>
<path d="M5376 4003 c-4 -5 -11 -8 -14 -8 -4 -1 -17 -4 -29 -9 -27 -9 -31 -25
-5 -21 43 6 102 -54 88 -90 -2 -6 -47 -28 -99 -48 -52 -20 -120 -47 -151 -61
l-57 -26 -24 26 c-14 15 -26 21 -30 14 -3 -5 -2 -10 2 -10 5 0 22 -43 38 -95
16 -52 32 -95 36 -95 4 0 5 8 3 18 -8 28 17 49 101 82 44 17 94 37 110 45 32
14 113 45 119 45 4 0 7 -28 8 -72 1 -27 -6 -42 -27 -62 -31 -29 -25 -32 26
-15 56 19 60 26 44 65 -8 19 -15 38 -16 42 -3 13 -7 26 -49 155 -39 117 -53
141 -74 120z"/>
<path d="M432 3933 c-88 -43 -144 -171 -120 -275 27 -122 147 -194 265 -160
79 23 142 125 148 238 1 34 -28 106 -60 145 -51 62 -163 87 -233 52z m140
-116 c76 -37 118 -81 118 -125 0 -37 -15 -70 -39 -89 -58 -44 -272 27 -303
101 -19 46 -19 57 2 102 l18 42 74 -2 c56 -2 86 -8 130 -29z"/>
<path d="M5540 3543 c0 -13 -29 -43 -87 -89 -49 -37 -90 -71 -93 -75 -12 -15
-52 -29 -103 -35 -55 -7 -70 1 -77 41 -1 6 -4 12 -7 15 -5 5 6 -134 13 -170 1
-8 3 -27 3 -42 1 -41 21 -34 21 6 l0 35 58 6 c31 3 67 8 80 11 12 2 22 1 22
-4 0 -4 23 -16 50 -27 28 -11 50 -23 50 -27 0 -4 3 -7 8 -6 12 3 96 -43 105
-58 4 -8 13 -14 18 -14 6 0 8 4 4 10 -3 5 -7 32 -9 60 -5 60 -11 71 -20 35 -9
-35 -32 -32 -123 14 -86 44 -88 31 21 116 65 49 74 52 82 30 9 -23 23 -18 19
8 -2 12 -7 47 -10 77 -7 74 -10 88 -18 96 -4 4 -7 -2 -7 -13z"/>
<path d="M283 3440 c-42 -33 -59 -86 -69 -215 -3 -33 -7 -76 -10 -95 -5 -33
-4 -34 10 -16 9 11 16 26 16 33 0 11 15 13 73 7 66 -6 102 -11 102 -13 0 -1
36 -4 79 -6 87 -6 106 -15 106 -53 0 -14 3 -22 8 -18 10 10 29 216 19 216 -4
0 -12 -11 -17 -25 -9 -25 -13 -26 -67 -20 -94 9 -93 8 -93 76 0 66 -18 112
-51 130 -34 18 -84 17 -106 -1z m106 -111 c23 -25 33 -69 17 -75 -6 -2 -43 -1
-81 3 -62 7 -70 11 -73 30 -8 56 95 87 137 42z"/>
<path d="M5270 2810 c-8 -5 -10 -17 -6 -33 3 -14 1 -29 -4 -32 -6 -4 -8 -11
-4 -16 3 -5 1 -15 -4 -22 -8 -10 -10 -88 -4 -180 1 -18 19 -45 56 -81 53 -53
91 -71 147 -69 33 2 97 42 105 66 3 9 9 17 14 17 5 0 20 19 32 43 17 33 22 60
22 122 1 103 -15 145 -56 145 -18 0 -38 9 -52 25 -13 14 -26 25 -29 25 -17 0
-42 -156 -29 -178 7 -9 14 -8 32 8 38 33 104 7 95 -38 -2 -9 -4 -27 -4 -40 -1
-13 -5 -20 -11 -17 -5 3 -10 0 -10 -8 0 -21 -59 -46 -100 -42 -108 10 -153 33
-169 85 -18 60 -6 100 41 143 23 20 45 37 50 37 4 0 8 8 8 17 0 9 -3 13 -6 10
-4 -3 -14 -2 -23 2 -25 14 -77 20 -91 11z"/>
<path d="M228 2798 c-2 -7 1 -58 7 -113 10 -93 12 -98 24 -73 17 33 86 53 129
37 31 -12 28 -21 -20 -69 l-41 -42 39 6 c21 4 53 9 69 11 17 2 41 8 55 14 24
9 24 10 3 10 -14 1 -23 7 -23 17 0 8 -4 12 -10 9 -6 -4 -10 6 -10 23 0 33 14
42 67 42 46 0 58 -16 57 -70 -2 -38 -7 -49 -39 -76 -37 -33 -34 -51 7 -35 12
4 31 7 41 5 21 -3 32 33 23 79 -3 17 -8 68 -11 112 -2 44 -6 90 -7 103 -2 23
-14 30 -20 10 -2 -6 -25 -12 -51 -12 -26 -1 -47 -4 -47 -8 0 -5 -24 -8 -54 -8
-30 0 -57 -4 -60 -8 -2 -4 -17 -7 -33 -6 -15 1 -36 3 -46 3 -10 1 -22 12 -27
26 -11 28 -16 31 -22 13z"/>
<path d="M255 2429 c6 -46 25 -99 36 -99 5 0 9 8 9 18 0 13 9 19 34 20 31 2
35 -1 44 -30 27 -89 22 -113 -25 -114 -44 0 -54 -10 -42 -42 6 -15 10 -27 9
-27 -7 0 16 -84 26 -100 14 -19 14 -19 14 3 0 13 4 21 9 17 5 -3 12 4 16 15 3
11 10 20 15 20 4 0 45 35 89 78 45 43 81 77 81 75 0 -2 18 15 40 37 22 22 40
44 40 49 0 13 -48 29 -125 41 -38 6 -79 12 -90 14 -24 6 -115 25 -133 29 -7 2
-18 9 -24 15 -20 20 -27 14 -23 -19z m225 -95 c0 -7 -9 -18 -20 -24 -15 -8
-21 -6 -30 9 -13 26 -13 29 8 33 24 6 42 -2 42 -18z"/>
<path d="M5222 2380 c-7 -16 -14 -33 -14 -37 0 -4 -4 -16 -9 -25 -5 -10 -5
-19 0 -22 5 -3 11 0 14 8 4 9 17 13 41 10 76 -7 125 -54 74 -69 -13 -4 -53
-22 -90 -40 -36 -18 -69 -31 -72 -27 -3 3 -6 -2 -6 -10 0 -9 -3 -18 -7 -20
-10 -4 -67 -121 -78 -158 -1 -3 -9 -22 -18 -44 -9 -21 -17 -42 -17 -47 0 -11
60 -42 60 -32 0 5 4 3 8 -2 4 -6 37 -27 75 -45 93 -48 150 -98 150 -133 l0
-27 23 32 c13 17 24 37 24 42 0 6 6 22 13 36 8 14 19 40 25 58 10 29 9 31 -6
23 -9 -5 -20 -9 -24 -10 -21 -1 -86 30 -167 79 -77 47 -90 59 -88 79 4 45 34
52 110 27 37 -13 67 -20 67 -17 0 3 4 1 8 -4 4 -6 25 -16 47 -24 50 -17 65
-29 65 -50 0 -9 5 -22 12 -29 10 -10 16 -3 30 30 9 24 17 56 17 72 1 25 -1 27
-14 16 -9 -7 -31 -13 -50 -12 -44 2 -168 58 -163 74 4 11 55 45 68 45 11 0 86
26 105 36 11 6 22 12 25 12 3 1 26 11 53 23 77 35 72 40 -93 102 -117 44 -167
69 -177 91 -7 17 -9 16 -21 -11z"/>
<path d="M564 2089 c-18 -5 -46 -22 -63 -38 -17 -16 -31 -26 -31 -23 0 4 -10
-13 -21 -38 -22 -47 -30 -135 -14 -160 9 -15 10 -19 13 -50 3 -21 71 -90 101
-101 18 -7 28 -6 40 6 14 13 13 15 -9 15 -14 0 -40 13 -58 28 -28 23 -33 34
-36 82 -4 67 17 104 86 149 82 54 160 44 193 -25 20 -43 19 -82 -5 -127 -11
-20 -20 -39 -20 -42 0 -3 16 2 36 10 48 20 54 19 54 -6 0 -21 -41 -64 -115
-121 -86 -66 -111 -135 -76 -210 30 -67 83 -108 139 -108 31 0 142 72 142 92
0 6 3 9 6 5 3 -3 18 7 33 22 33 35 57 44 82 30 33 -17 18 -62 -45 -133 -14
-16 -26 -32 -26 -35 0 -3 -18 -26 -40 -50 -22 -24 -40 -41 -40 -38 0 3 -12 0
-27 -8 -15 -8 -31 -11 -37 -7 -28 17 34 -60 95 -119 38 -37 69 -71 69 -76 0
-6 15 -18 34 -28 l34 -19 46 46 c25 25 42 48 39 52 -3 3 -12 1 -19 -5 -43 -36
-154 6 -154 58 0 22 36 83 60 103 3 3 17 21 30 40 13 19 41 52 61 73 34 34 40
37 61 26 23 -12 23 -11 -2 17 -14 16 -42 45 -62 65 -21 20 -38 39 -38 43 0 4
-11 22 -25 40 -14 18 -25 39 -25 46 0 7 -3 10 -7 7 -3 -4 -12 1 -19 11 -12 16
-13 15 -14 -6 0 -13 -6 -35 -14 -50 -15 -28 -103 -112 -121 -115 -5 0 -19 -9
-29 -19 -10 -9 -23 -15 -27 -12 -4 2 -10 0 -14 -6 -9 -14 -61 15 -76 41 -6 11
-8 33 -4 47 8 33 149 172 175 172 6 0 10 4 10 9 0 5 11 9 25 9 14 0 25 -4 25
-9 0 -5 4 -9 9 -9 5 0 7 10 4 23 -7 27 -92 159 -110 170 -10 6 -24 44 -38 102
-25 109 -142 184 -241 154z"/>
<path d="M5030 1870 c0 -5 5 -10 10 -10 6 0 10 5 10 10 0 6 -4 10 -10 10 -5 0
-10 -4 -10 -10z"/>
<path d="M4978 1769 c-10 -5 -39 -42 -65 -82 -25 -40 -57 -85 -70 -100 -13
-16 -21 -33 -17 -38 3 -5 -2 -9 -10 -9 -9 0 -16 -4 -16 -8 0 -12 -50 -70 -135
-157 -95 -98 -97 -101 -80 -115 12 -10 15 -10 15 -1 0 23 44 -1 85 -45 88 -94
128 -142 128 -150 -1 -5 5 -17 12 -28 8 -10 11 -26 7 -35 -3 -9 45 35 106 97
62 62 112 119 112 126 0 31 -60 113 -73 100 -2 -3 -3 -21 0 -40 11 -80 -21
-144 -67 -137 -29 4 -60 37 -60 63 0 21 43 33 59 17 8 -8 11 -7 11 2 0 29
-121 160 -129 139 -2 -6 1 -13 7 -17 6 -4 9 -15 7 -26 -2 -11 -4 -23 -4 -27
-2 -16 -29 -7 -54 18 -43 43 -16 97 55 109 29 5 43 3 49 -6 5 -8 9 -9 9 -4 0
6 -5 16 -10 21 -26 26 -15 91 15 89 42 -2 254 -183 240 -204 -3 -5 -1 -12 5
-16 5 -3 18 9 29 27 11 18 24 38 29 44 17 19 32 53 32 71 0 11 -3 14 -8 7 -8
-12 -72 10 -72 25 0 5 -9 11 -20 14 -13 3 -18 10 -14 21 5 13 22 16 81 16 41
0 83 5 94 10 16 9 52 62 54 80 0 3 4 12 9 20 7 12 6 13 -5 3 -8 -8 -43 -13
-95 -13 -70 0 -83 3 -88 18 -3 9 -10 36 -16 60 -6 24 -20 48 -33 56 -26 16
-85 19 -109 5z m68 -118 c6 -7 9 -23 8 -35 -1 -11 -3 -25 -3 -31 -1 -5 -5 -16
-10 -24 -7 -11 -17 -8 -50 15 -51 36 -63 70 -32 95 19 15 26 16 49 6 15 -6 32
-18 38 -26z"/>
<path d="M1257 1255 c-9 -13 -22 -36 -27 -50 -9 -24 -8 -26 12 -19 43 14 68
13 68 -2 0 -9 5 -12 11 -8 9 5 10 -1 5 -22 -4 -16 -11 -31 -14 -34 -10 -7 -28
-37 -55 -92 -13 -26 -26 -46 -28 -43 -3 2 -13 -11 -23 -30 -11 -19 -31 -38
-47 -44 -16 -5 -29 -14 -29 -19 0 -17 90 -89 130 -104 13 -5 15 1 12 27 -4 31
20 93 40 106 5 3 10 12 11 20 2 8 10 25 20 39 10 14 31 44 47 67 43 61 79 49
85 -28 2 -24 4 -46 5 -49 0 -3 7 3 14 13 12 15 18 16 35 8 19 -11 20 -19 18
-129 -1 -83 -6 -124 -17 -142 -19 -32 -41 -49 -62 -50 -9 0 -20 -5 -23 -10 -4
-6 -3 -9 2 -8 4 1 30 -12 57 -30 27 -17 53 -29 57 -26 5 3 9 2 9 -3 0 -4 11
-13 25 -19 22 -11 24 -10 16 5 -20 38 21 148 64 171 14 7 25 17 25 22 0 4 5 8
12 8 6 0 19 6 27 14 9 7 42 27 74 44 l57 31 -22 20 c-12 12 -29 21 -38 21 -9
0 -21 5 -28 12 -9 9 -12 5 -12 -20 0 -26 -8 -38 -42 -62 -66 -48 -76 -43 -76
41 0 53 4 72 15 76 11 4 7 12 -17 34 -17 16 -38 29 -46 29 -8 0 -17 7 -20 15
-4 8 -11 15 -18 15 -11 0 -22 9 -108 85 -68 59 -128 108 -157 127 -25 16 -27
16 -44 -7z"/>
<path d="M4501 1225 c-15 -11 -36 -28 -45 -37 -10 -10 -21 -18 -25 -18 -4 0
-32 -24 -62 -53 -30 -30 -73 -64 -96 -77 -42 -23 -63 -50 -39 -50 34 0 90
-100 68 -122 -8 -8 -19 -8 -39 2 -16 7 -31 14 -35 14 -3 1 -10 4 -14 9 -4 4
-16 7 -26 7 -10 0 -18 4 -18 9 0 5 -13 14 -30 21 -24 10 -36 10 -60 0 -16 -7
-32 -11 -35 -11 -3 1 -13 -5 -21 -14 -9 -8 -22 -15 -29 -15 -8 0 -30 -9 -50
-20 -19 -11 -35 -17 -35 -15 0 3 -22 -7 -50 -22 -27 -15 -50 -33 -50 -41 0 -7
4 -11 8 -8 18 11 50 -26 72 -81 12 -32 31 -80 42 -107 19 -47 22 -59 34 -121
3 -16 7 -31 9 -33 6 -6 85 21 85 30 0 4 3 7 8 6 4 -2 18 5 32 16 23 16 23 17
3 11 -18 -5 -25 1 -43 42 -12 26 -26 59 -30 73 -5 14 -19 55 -33 91 -35 95
-25 142 28 136 14 -2 32 -29 64 -93 76 -154 81 -172 66 -222 -7 -21 -6 -22 20
-12 38 15 85 49 85 63 0 8 -3 8 -11 0 -9 -9 -17 -5 -33 15 -36 44 -100 202
-82 202 3 0 70 -32 147 -71 78 -38 148 -68 156 -65 18 7 13 24 -47 151 -54
114 -64 137 -62 148 1 4 -2 7 -6 7 -4 0 -9 18 -10 40 -2 30 1 40 13 40 8 0 15
6 15 13 1 14 59 -53 60 -69 0 -5 10 -21 23 -34 12 -14 20 -26 18 -28 -1 -2 5
-14 16 -25 38 -45 75 -119 70 -143 -3 -15 0 -21 7 -17 17 10 78 56 104 78 13
11 26 20 30 20 4 0 18 11 33 25 14 14 36 33 48 43 23 19 23 27 -5 95 -15 37
-34 42 -35 10 -2 -80 -17 -111 -65 -136 -18 -10 -26 -7 -48 14 -27 28 -42 61
-32 72 4 3 23 5 43 4 35 -3 36 -2 20 16 -9 10 -17 26 -17 35 0 9 -4 17 -10 17
-5 0 -10 6 -10 13 0 6 -14 28 -31 47 -17 19 -28 29 -24 23 12 -24 14 -53 4
-58 -5 -4 -6 -11 -3 -17 10 -15 -17 -28 -31 -15 -13 14 -45 81 -45 94 1 13 44
41 71 44 13 2 34 -2 46 -9 36 -20 43 -15 32 18 -6 17 -15 30 -19 30 -5 0 -11
8 -14 18 -8 24 -42 22 -75 -3z"/>
<path d="M3761 787 c-6 -8 -33 -17 -59 -20 -97 -12 -146 -37 -183 -95 -27 -42
-51 -122 -45 -152 6 -35 31 -97 49 -123 42 -55 171 -91 211 -58 7 6 16 8 19 4
4 -3 7 -2 7 3 0 5 9 10 20 11 11 1 25 7 32 13 7 5 24 19 37 30 22 18 23 23 13
76 -8 50 -7 59 9 75 10 10 15 21 10 23 -5 3 -11 3 -15 -1 -3 -4 -18 -8 -34
-10 -48 -5 -52 -6 -52 -15 0 -4 -3 -7 -7 -6 -5 1 -21 -4 -38 -11 -28 -12 -29
-13 -9 -21 24 -10 35 -31 39 -77 4 -43 -15 -57 -66 -50 -66 9 -107 77 -114
189 -4 75 11 114 52 133 45 22 91 11 136 -30 30 -28 37 -30 41 -17 6 19 -18
120 -32 134 -5 5 -14 3 -21 -5z"/>
<path d="M2013 777 c-22 -12 -73 -65 -73 -77 0 -4 -5 -10 -12 -12 -26 -9 -33
-165 -10 -219 9 -22 20 -39 24 -39 5 0 8 -6 8 -12 0 -12 72 -53 91 -53 4 0 11
-3 15 -7 4 -5 26 -8 49 -8 48 0 134 49 142 80 3 11 9 20 14 20 12 0 29 69 29
121 0 50 -17 110 -34 121 -6 4 -8 8 -4 8 17 0 -50 57 -87 73 -43 19 -120 21
-152 4z m135 -46 c7 -1 20 -18 28 -38 29 -68 -6 -227 -59 -272 -61 -50 -135
16 -117 104 1 6 4 27 6 49 6 46 33 116 45 116 5 0 9 6 9 13 0 16 38 36 60 31
8 -1 21 -3 28 -3z"/>
<path d="M2330 704 c0 -4 6 -15 14 -23 23 -25 23 -31 1 -181 -2 -14 -6 -43
-10 -65 -5 -38 -11 -67 -20 -105 -2 -8 -4 -17 -4 -19 -1 -2 -7 2 -14 8 -8 6
-17 8 -20 4 -11 -10 57 -40 113 -49 8 -2 27 -5 43 -9 31 -6 38 14 12 35 -21
17 -17 95 6 123 l16 21 26 -28 c28 -30 30 -28 45 29 28 106 22 140 -16 94 -50
-62 -66 -58 -64 13 3 62 10 76 40 80 40 5 76 -19 96 -64 18 -43 24 -44 32 -7
15 65 12 79 -15 93 -14 7 -44 16 -66 20 -22 4 -47 9 -55 11 -8 1 -40 6 -70 10
-30 4 -63 9 -72 11 -10 3 -18 2 -18 -2z"/>
<path d="M3360 675 c-14 -7 -28 -11 -32 -9 -3 2 -10 -1 -14 -7 -4 -7 -3 -9 3
-6 30 19 75 -110 47 -134 -16 -13 -36 0 -109 78 -51 53 -78 63 -134 49 -44
-11 -69 -36 -36 -36 17 0 41 -48 49 -96 13 -83 17 -222 7 -229 -6 -3 -9 -11
-6 -16 4 -5 0 -9 -8 -9 -8 0 -18 -7 -21 -16 -5 -13 1 -15 37 -11 59 7 97 18
97 28 0 5 -6 9 -13 9 -13 0 -39 35 -44 60 -2 8 -6 50 -10 94 -6 77 -6 78 15
72 20 -7 104 -86 196 -186 46 -51 56 -42 49 39 -2 31 -6 81 -8 111 -2 30 -7
79 -11 107 -5 40 -3 59 10 77 20 32 20 33 -4 39 -13 3 -18 1 -13 -6 5 -9 3 -9
-8 0 -11 9 -20 8 -39 -2z"/>
<path d="M2730 647 c0 -3 11 -17 25 -31 25 -25 25 -28 25 -178 0 -84 -4 -158
-8 -164 -4 -6 -16 -14 -26 -18 -13 -4 -16 -10 -9 -17 6 -6 69 -8 159 -7 l149
3 8 54 c6 36 5 57 -2 64 -8 8 -11 7 -11 -4 0 -21 -39 -63 -72 -77 -31 -13 -72
-3 -80 20 -10 29 -8 102 3 109 13 8 39 -14 56 -45 10 -17 11 -16 11 10 0 16 3
64 7 107 9 86 0 97 -29 37 -12 -25 -26 -40 -38 -40 -16 0 -18 9 -18 65 0 36 3
65 8 66 4 0 15 2 25 4 33 6 78 -21 102 -61 28 -46 38 -34 33 41 -2 39 -7 49
-23 51 -46 8 -295 17 -295 11z"/>
</g>
</svg>
